# xmcd
#
# Track frame offsets:
#	150
#	35176
#	89941
#	119177
#	143357
#	193580
#	236783
#	285370
#
# Disc length: 4385 seconds
#
# Revision: 1
# Processed by: cddbd v1.5.2PL0 Copyright (c) Steve Scherf et al.
# Submitted via: audiograbber 1.83.01
#
DISCID=7b111f08
DTITLE=Grateful Dead - 82-04-17 Hartford Civic Centre, Hartford CT
DYEAR=1900
DGENRE=
TTITLE0=Minglewood Blues
TTITLE1=Sugaree
TTITLE2=El Paso
TTITLE3=Jack-A-Roe
TTITLE4=Little Red Rooster
TTITLE5=Tennessee Jed
TTITLE6=It's All Over Now
TTITLE7=Bird Song
EXTD=
EXTT0=
EXTT1=
EXTT2=
EXTT3=
EXTT4=
EXTT5=
EXTT6=
EXTT7=
PLAYORDER=
